<?xml version="1.0" encoding="UTF-8" standalone="no"?>
<svg
   width="826.5958709524554mm"
   height="581.5599585506948mm"
   viewBox="0 0 826.5958709524554 581.5599585506948"
   version="1.1"
   id="svg14"
   sodipodi:docname="bike-head-with-tabs.svg"
   inkscape:version="1.2.2 (b0a8486541, 2022-12-01)"
   xmlns:inkscape="http://www.inkscape.org/namespaces/inkscape"
   xmlns:sodipodi="http://sodipodi.sourceforge.net/DTD/sodipodi-0.dtd"
   xmlns="http://www.w3.org/2000/svg"
   xmlns:svg="http://www.w3.org/2000/svg">
  <defs
     id="defs18" />
  <sodipodi:namedview
     id="namedview16"
     pagecolor="#ffffff"
     bordercolor="#666666"
     borderopacity="1.0"
     inkscape:showpageshadow="2"
     inkscape:pageopacity="0.0"
     inkscape:pagecheckerboard="0"
     inkscape:deskcolor="#d1d1d1"
     inkscape:document-units="mm"
     showgrid="false"
     inkscape:zoom="1.0474599"
     inkscape:cx="737.4984"
     inkscape:cy="1086.9151"
     inkscape:window-width="1920"
     inkscape:window-height="1016"
     inkscape:window-x="0"
     inkscape:window-y="0"
     inkscape:window-maximized="1"
     inkscape:current-layer="svg14" />
  <path
     style="fill:none;fill-opacity:1;fill-rule:evenodd;stroke:#0000ff;stroke-width:0.2;stroke-linecap:square;stroke-miterlimit:4;stroke-dasharray:none;stroke-opacity:1"
     d="M 593.1269,336.58864 354.66518,363.7181"
     id="path1712" />
  <g
     id="Shape001"
     transform="matrix(0.98768834,-0.15643447,-0.15643447,-0.98768834,374.96558,310.0791)">
    <title
       id="title7">b&quot;Unwrapped side (rider's left)&quot;</title>
  </g>
  <path
     style="fill:none;fill-opacity:1;fill-rule:evenodd;stroke:#0000ff;stroke-width:0.2;stroke-linecap:square;stroke-miterlimit:4;stroke-dasharray:none;stroke-opacity:1"
     d="m 354.81141,213.08987 238.4086,27.5924"
     id="path1732" />
  <path
     id="Shape002_w0000"
     style="fill:none;fill-opacity:1;fill-rule:evenodd;stroke:#000000;stroke-width:0.2;stroke-linecap:square;stroke-miterlimit:4;stroke-dasharray:none;stroke-opacity:1"
     class="UnoptimicedTransforms"
     d="m 428.86219,2.335258 -1.94251,0.118339 -1.89239,0.4542358 -1.78491,0.7756633 -1.62315,1.074353 L 400.5616,21.50308 386.85081,5.3107869 C 385.06082,3.1968264 381.91768,2.9358706 379.80369,4.7258097 L 334.01424,43.49812 c -2.11396,1.789982 -2.37494,4.933122 -0.58498,7.047115 l 12.31759,14.546916 -20.37291,16.201078 -0.31678,12.028723 -67.43258,-1.562178 c -2.76923,-0.06415 -5.05021,2.113156 -5.11441,4.882389 l -1.38958,59.983937 c -0.0641,2.76925 2.11365,5.05022 4.88291,5.11442 l 67.21191,1.55701 -0.16588,6.29884 0.093,4.01836 0.48938,3.98942 0.88056,3.92172 1.26401,3.81527 1.63401,3.67213 1.98902,3.49281 2.32389,3.27887 2.63653,3.03392 2.92334,2.75849 3.1812,2.4567 3.40806,2.1301 3.60236,1.78335 3.75998,1.41904 3.88245,1.04128 3.96617,0.65216 -4.27209,2.02985 -3.12694,-0.37156 -3.11971,-0.38809 -3.60081,-0.46664 -3.59823,-0.48265 -3.59565,-0.49506 -3.59461,-0.50333 -3.59306,-0.50798 -3.59307,-0.50798 -3.99148,-0.56017 -3.99253,-0.55036 -3.99407,-0.53485 -3.99614,-0.51418 -3.99872,-0.48886 -4.0013,-0.45837 -3.99666,-0.42271 -4.00802,-0.38499 -87.9714,-7.98763 -122.934593,2.85254 -1.567346,0.0512 -1.562179,0.0806 -1.896008,0.13384 -2.102197,0.19224 -2.09703,0.22944 -2.092895,0.25941 -2.08101,0.27854 -2.086178,0.2899 -53.258765,7.43211 -0.06356,65.36655 104.421011,-0.91312 0.015,29.48295 -104.464423,0.7028 -0.06098,62.98117 53.244296,7.53546 2.08566,0.29404 2.080493,0.28267 2.091862,0.26355 2.09703,0.23358 2.101681,0.19585 1.896008,0.13798 1.561662,0.0832 1.567346,0.0548 122.928115,3.09077 87.98718,-7.81658 4.00905,-0.37724 3.99718,-0.41496 4.00285,-0.45062 3.99924,-0.4811 3.99717,-0.50643 3.99511,-0.5271 3.99355,-0.5426 3.99252,-0.55243 3.5941,-0.50126 3.5941,-0.50074 3.59513,-0.4961 3.59719,-0.48834 3.59927,-0.47594 3.60133,-0.4594 3.12074,-0.38189 3.12745,-0.36587 -1.02474,2.87993 -3.96617,0.65215 -3.88193,1.04077 -3.76049,1.41955 -3.60185,1.78335 -3.40806,2.13011 -3.1812,2.45669 -2.92334,2.75849 -2.63653,3.03392 -2.32389,3.27939 -1.98903,3.49281 -1.634,3.67161 -1.26401,3.81579 -0.88057,3.92172 -0.48937,3.98891 -0.0925,4.01836 0.19068,7.24297 -66.40163,1.23713 c -2.76952,0.0516 -4.95776,2.32268 -4.90616,5.0922 l 1.11725,59.98962 c 0.0516,2.7695 2.32319,4.95776 5.09271,4.90616 l 66.9401,-1.24696 0.29197,11.08201 15.9644,12.69484 -10.36888,12.32638 c -1.78312,2.11973 -1.51255,5.2614 0.6072,7.04453 l 53.56779,45.06133 c 2.11975,1.78313 5.26192,1.51204 7.04505,-0.60772 l 11.78843,-14.01361 17.64233,14.02912 1.62316,1.07383 1.7849,0.77567 1.89239,0.45423 1.94252,0.11834 1.93373,-0.22066 1.86604,-0.55293 1.74149,-0.86868 1.56425,-1.15756 40.26989,-35.63813 1.18339,-1.27589 0.91261,-1.48157 0.60565,-1.63142 0.27543,-1.71824 -0.0646,-1.73891 -0.40308,-1.69292 -0.72502,-1.58182 -1.02009,-1.41025 -67.10082,-75.82069 -1.60352,-2.09652 -1.28932,-2.30322 -0.94827,-2.46341 -0.58807,-2.57349 -0.21601,-2.63033 0.16123,-2.63498 0.53382,-2.58485 0.89658,-2.48254 1.24075,-2.33009 1.5596,-2.12907 1.84691,-1.88619 2.096,-1.60352 2.30374,-1.28933 2.46289,-0.94826 2.57349,-0.58808 2.63085,-0.216 2.63446,0.16123 2.58486,0.53381 2.48253,0.89659 2.33009,1.24075 2.12959,1.5596 1.88567,1.84691 68.28059,77.15447 1.73013,1.69395 1.95337,1.4304 2.13733,1.13843 2.27738,0.82218 2.37143,0.48989 2.41639,0.14779 2.41329,-0.19792 2.36058,-0.5395 2.25981,-0.86971 2.11305,-1.18288 1.92288,-1.47123 9.34517,-8.27029 35.36218,40.70656 c 1.81661,2.09113 4.96271,2.31219 7.05384,0.49557 l 52.84431,-45.90727 c 2.09113,-1.81661 2.3122,-4.9622 0.49558,-7.05332 l -35.84484,-41.26208 18.68517,-16.53594 7.37732,-57.37893 0.20361,-3.0117 -0.16123,-3.01428 -0.52297,-2.97295 -0.87746,-2.8882 -1.21957,-2.76158 -1.54306,-2.59416 -1.84484,-2.38952 -2.11925,-2.14974 -2.36265,-1.87844 -2.57194,-1.58026 -2.7435,-1.25832 -2.87579,-0.91881 -2.9652,-0.56586 -3.0117,-0.2036 -1.98076,-2.6448 3.14141,-0.34055 3.14555,-0.30334 3.14968,-0.26097 3.15278,-0.21445 3.15588,-0.16434 3.15846,-0.11162 3.1595,-0.0574 3.16001,-0.002 3.16001,0.0537 3.15795,0.10852 3.1564,0.16123 3.15278,0.21187 3.14968,0.2589 2.08876,0.19586 2.08669,0.21394 57.52738,6.11694 116.27442,16.45636 0.13642,-140.12685 -116.30686,16.23053 -57.53886,6.00584 -2.08721,0.20929 -2.08928,0.19172 -3.14968,0.25321 -3.15381,0.20567 -3.15588,0.15503 -3.15898,0.10232 -3.1595,0.0475 -3.16001,-0.008 -3.16001,-0.0636 -3.15795,-0.11834 -3.15536,-0.17053 -3.15227,-0.22014 -3.14916,-0.26717 -3.14503,-0.30954 -3.14089,-0.34623 4.31653,-2.42156 3.01481,0.16071 3.01118,-0.20412 2.9652,-0.56534 2.87579,-0.91881 2.7435,-1.25883 2.57194,-1.58027 2.36264,-1.87844 2.11925,-2.14974 1.84485,-2.38952 1.43454,-2.29185 1.32809,-3.06389 0.87746,-2.8882 0.52348,-2.97294 0.16072,-3.01429 -0.20361,-3.0117 -7.37784,-57.37893 -15.78664,-13.97072 36.22983,-40.947889 c 1.83551,-2.074531 1.64303,-5.22244 -0.43149,-7.057967 L 585.37512,44.493408 c -2.07455,-1.835524 -5.2224,-1.643519 -7.05797,0.430982 l -36.22466,40.942203 -12.24628,-10.837581 -1.92288,-1.471228 -2.11305,-1.182874 -2.25981,-0.869714 -2.36058,-0.539502 -2.41277,-0.197921 -2.41691,0.147795 -2.37143,0.489893 -2.27738,0.822172 -2.13734,1.138431 -1.95337,1.430404 -1.72961,1.69447 -68.28007,77.154982 -1.88567,1.84691 -2.12958,1.5596 -2.32958,1.24075 -2.48305,0.89659 -2.58486,0.53433 -2.63446,0.16071 -2.63085,-0.216 -2.57297,-0.58808 -2.46341,-0.94826 -2.30374,-1.28881 -2.09599,-1.60404 -1.84692,-1.88567 -1.55959,-2.12959 -1.24076,-2.32957 -0.89658,-2.48254 -0.53434,-2.58537 -0.16071,-2.63446 0.21601,-2.63085 0.58808,-2.57297 0.94826,-2.46342 1.28881,-2.30322 1.60404,-2.09651 67.09978,-75.821727 1.02009,-1.41025 0.72502,-1.581815 0.40307,-1.69292 0.0646,-1.738912 -0.27595,-1.718242 -0.60617,-1.631424 -0.91209,-1.481564 -1.1839,-1.275374 -40.2699,-35.6381349 -1.56424,-1.1575521 -1.7415,-0.8686808 -1.86603,-0.5529379 z"
     sodipodi:nodetypes="ccccccsccccccccsccccccccccccccccccccccccccccccccccccccccccccccccccccccccccccccccccccccccccccccccccccccccccccccccccccccscccccccccccccccccccccccccccccccccccccccccccccccccccccccccccscccccccccccccccccccccccccccccccccccccccccccccccccccccccccccccccccccccccccccsccccccccccccccccccccccccccccccccccccccccccccccccccc" />
  <path
     style="fill:none;stroke:#0000ff;stroke-width:0.265;stroke-linecap:butt;stroke-linejoin:miter;stroke-opacity:1;stroke-dasharray:none"
     d="m 324.8828,94.019678 -1.69662,68.441952"
     id="path3807" />
  <path
     style="fill:none;stroke:#0000ff;stroke-width:0.264583px;stroke-linecap:butt;stroke-linejoin:miter;stroke-opacity:1"
     d="M 346.30407,64.467027 399.83105,21.9151"
     id="path3809" />
  <path
     style="fill:none;stroke:#0000ff;stroke-width:0.264583px;stroke-linecap:butt;stroke-linejoin:miter;stroke-opacity:1"
     d="m 542.5419,86.239058 59.09644,52.184092"
     id="path3811" />
  <path
     style="fill:none;stroke:#0000ff;stroke-width:0.264583px;stroke-linecap:butt;stroke-linejoin:miter;stroke-opacity:1"
     d="m 534.2783,494.03671 58.99576,-52.13918"
     id="path3813" />
  <path
     style="fill:none;stroke:#0000ff;stroke-width:0.264583px;stroke-linecap:butt;stroke-linejoin:miter;stroke-opacity:1"
     d="m 336.26933,509.53976 61.72842,49.24915"
     id="path3815" />
  <path
     style="fill:none;stroke:#0000ff;stroke-width:0.264583px;stroke-linecap:butt;stroke-linejoin:miter;stroke-opacity:1"
     d="m 317.73812,415.81114 1.70106,68.97526"
     id="path3817" />
  <path
     style="fill:none;stroke:#0000ff;stroke-width:0.264583px;stroke-linecap:butt;stroke-linejoin:miter;stroke-opacity:1"
     d="M 695.934,235.637 695.83,341.231"
     id="path414"
     sodipodi:nodetypes="cc" />
  <path
     style="fill:none;stroke:#0000ff;stroke-width:0.264583px;stroke-linecap:butt;stroke-linejoin:miter;stroke-opacity:1"
     d="m 207.039,198.963 -0.177,179.202"
     id="path2486"
     sodipodi:nodetypes="cc" />
</svg>
