<?xml version="1.0" encoding="UTF-8" standalone="no"?>
<svg
   width="826.5958709524554mm"
   height="581.5599585506948mm"
   viewBox="0 0 826.5958709524554 581.5599585506948"
   version="1.1"
   id="svg14"
   sodipodi:docname="bike-head.svg"
   inkscape:version="1.2.2 (b0a8486541, 2022-12-01)"
   xmlns:inkscape="http://www.inkscape.org/namespaces/inkscape"
   xmlns:sodipodi="http://sodipodi.sourceforge.net/DTD/sodipodi-0.dtd"
   xmlns="http://www.w3.org/2000/svg"
   xmlns:svg="http://www.w3.org/2000/svg">
  <defs
     id="defs18" />
  <sodipodi:namedview
     id="namedview16"
     pagecolor="#ffffff"
     bordercolor="#666666"
     borderopacity="1.0"
     inkscape:showpageshadow="2"
     inkscape:pageopacity="0.0"
     inkscape:pagecheckerboard="0"
     inkscape:deskcolor="#d1d1d1"
     inkscape:document-units="mm"
     showgrid="false"
     inkscape:zoom="0.370333"
     inkscape:cx="1529.7044"
     inkscape:cy="768.22752"
     inkscape:window-width="1920"
     inkscape:window-height="1016"
     inkscape:window-x="0"
     inkscape:window-y="0"
     inkscape:window-maximized="1"
     inkscape:current-layer="svg14" />
  <path
     style="fill:none;fill-opacity:1;fill-rule:evenodd;stroke:#0000ff;stroke-width:0.2;stroke-linecap:square;stroke-miterlimit:4;stroke-dasharray:none;stroke-opacity:1"
     d="M 593.1269,336.58864 354.66518,363.7181"
     id="path1712" />
  <g
     id="Shape001"
     transform="matrix(0.98768834,-0.15643447,-0.15643447,-0.98768834,374.96558,310.0791)">
    <title
       id="title7">b&quot;Unwrapped side (rider's left)&quot;</title>
  </g>
  <path
     style="fill:none;fill-opacity:1;fill-rule:evenodd;stroke:#0000ff;stroke-width:0.2;stroke-linecap:square;stroke-miterlimit:4;stroke-dasharray:none;stroke-opacity:1"
     d="m 354.81141,213.08987 238.4086,27.5924"
     id="path1732" />
  <path
     id="Shape002_w0000"
     style="fill:none;fill-opacity:1;fill-rule:evenodd;stroke:#000000;stroke-width:0.2;stroke-linecap:square;stroke-miterlimit:4;stroke-dasharray:none;stroke-opacity:1"
     d="m 15.360764,209.2644 53.258754,-7.43231 2.086216,-0.28982 2.08129,-0.27862 2.092454,-0.25932 2.097111,-0.22973 2.102121,-0.19178 1.896416,-0.13431 1.562091,-0.0803 1.567214,-0.0514 122.934109,-2.85243 87.97183,7.98764 4.00832,0.38494 3.9963,0.42282 4.00161,0.45842 3.99861,0.48873 3.99601,0.51427 3.99394,0.53485 3.9925,0.55018 3.99173,0.56018 3.59279,0.50817 3.5933,0.50781 3.59437,0.50342 3.59601,0.49506 3.59815,0.48277 3.60078,0.46665 3.1197,0.38809 3.12692,0.37149 4.2719,-2.02991 -3.96599,-0.65237 -3.88218,-1.04079 -3.76045,-1.41904 -3.60196,-1.78341 -3.40825,-2.13036 -3.18124,-2.45648 -2.92315,-2.7586 -2.63648,-3.03374 -2.32403,-3.27925 -1.98889,-3.49271 -1.63429,-3.67202 -1.26373,-3.81544 -0.88081,-3.92157 -0.48928,-3.9894 -0.093,-4.0182 2.32428,-88.30314 96.24552,-76.5358295 1.62301,-1.0739267 1.78484,-0.775782 1.89244,-0.4540726 1.94254,-0.1185399 1.9336,0.2205737 1.86594,0.5529811 1.74155,0.8686053 1.56427,1.1578286 40.27015,35.637761 1.18386,1.275437 0.91227,1.481882 0.60565,1.631402 0.27617,1.71813 -0.0648,1.73898 -0.40277,1.692941 -0.72531,1.581828 -1.01998,1.409928 -67.09981,75.821813 -1.60381,2.09642 -1.28914,2.30334 -0.94822,2.46335 -0.58799,2.57322 -0.21581,2.63072 0.16079,2.63465 0.53409,2.58495 0.89654,2.48263 1.24073,2.32977 1.55965,2.12948 1.84684,1.88584 2.09643,1.60381 2.30333,1.28914 2.46335,0.94822 2.57323,0.588 2.63071,0.2158 2.63465,-0.16079 2.58495,-0.53409 2.48263,-0.89653 2.32976,-1.24073 2.12949,-1.55966 1.88584,-1.84684 68.27983,-77.155228 1.72995,-1.69416 1.95342,-1.430718 2.13716,-1.138148 2.27739,-0.822416 2.37124,-0.489947 2.41685,-0.147484 2.41322,0.197957 2.36049,0.539389 2.2597,0.869823 2.11292,1.182567 1.9231,1.471223 87.94208,77.825842 7.37814,57.37891 0.20353,3.01174 -0.16093,3.0143 -0.52308,2.97294 -0.87754,2.88823 -1.21928,2.7614 m -607.228469,-15.61792 -0.153022,157.6202 53.24423,7.53571 2.085646,0.29385 2.08075,0.28263 2.09195,0.2634 2.096658,0.2338 2.101744,0.19585 1.896154,0.13801 1.561931,0.0833 1.567114,0.0544 122.928344,3.09112 87.98717,-7.81682 4.00906,-0.37715 3.99711,-0.41506 4.00249,-0.45066 3.99955,-0.48095 3.997,-0.50653 3.99498,-0.52708 3.99355,-0.54244 3.99282,-0.55242 3.59377,-0.5012 3.59427,-0.50083 3.59535,-0.49643 3.59695,-0.48808 3.59909,-0.47578 3.60167,-0.45967 3.12045,-0.38203 3.12764,-0.36542 -1.02471,2.87959 -3.96598,0.65242 -3.88218,1.04084 -3.76043,1.41908 -3.60193,1.78345 -3.40823,2.1304 -3.18122,2.45652 -2.92312,2.75863 -2.63644,3.03377 -2.324,3.27928 -1.98884,3.49273 -1.63425,3.67204 -1.26368,3.81545 -0.88077,3.92159 -0.48924,3.9894 -0.0929,4.01821 2.3253,88.3031 96.24639,76.53473 1.62302,1.07392 1.78485,0.77576 1.89244,0.45404 1.94254,0.11853 1.93361,-0.2206 1.86592,-0.55301 1.74155,-0.86863 1.56425,-1.15784 40.26975,-35.63822 1.18384,-1.27544 0.91226,-1.48191 0.60563,-1.63139 0.27572,-1.71822 -0.0648,-1.73898 -0.4028,-1.69293 -0.72533,-1.58182 -1.01998,-1.40991 -67.10068,-75.82105 -1.60384,-2.09641 -1.28917,-2.30332 -0.94825,-2.46334 -0.58802,-2.57321 -0.21583,-2.63072 0.16075,-2.63465 0.53407,-2.58495 0.8965,-2.48264 1.2407,-2.32978 1.55964,-2.1295 1.84682,-1.88587 2.0964,-1.60384 2.30332,-1.28916 2.46334,-0.94825 2.57322,-0.58803 2.63071,-0.21583 2.63465,0.16076 2.58496,0.53406 2.48263,0.89651 2.32979,1.2407 2.1295,1.55964 1.88586,1.84681 68.28072,77.15444 1.72996,1.69414 1.95345,1.4307 2.13717,1.13813 2.2774,0.82239 2.37124,0.48992 2.41684,0.14745 2.41323,-0.19799 2.36048,-0.5394 2.2597,-0.86986 2.11289,-1.18259 1.92309,-1.47124 87.94119,-77.82685 7.37748,-57.379 0.20351,-3.01174 -0.16098,-3.0143 -0.52311,-2.97293 -0.87758,-2.88822 -1.2193,-2.76139 m 5.44299,-127.8899 -1.54319,2.59432 -1.84462,2.38942 -2.11916,2.14969 -2.36279,1.8786 -2.57199,1.58014 -2.74367,1.25863 -2.8754,0.91878 -2.96514,0.56553 -3.01169,0.20404 -3.01434,-0.16044 -4.31686,2.42119 3.14111,0.34666 3.14503,0.30929 3.14887,0.26701 3.15247,0.22053 3.15556,0.17057 3.15797,0.11792 3.15953,0.0635 3.16016,0.008 3.15981,-0.0475 3.15852,-0.10222 3.15636,-0.15525 3.15346,-0.20576 3.15004,-0.25292 2.08904,-0.19189 2.08735,-0.20951 57.53878,-6.00534 116.30665,-16.23071 -0.13604,140.12683 -116.27491,-16.45649 -57.52702,-6.11705 -2.08693,-0.21356 -2.08867,-0.19595 -3.14953,-0.25904 -3.15306,-0.21187 -3.15606,-0.16138 -3.15831,-0.10835 -3.15971,-0.0537 -3.16018,0.002 -3.15965,0.0573 -3.15818,0.1118 -3.15589,0.16444 -3.15289,0.21441 -3.14938,0.2609 -3.14563,0.30317 -3.14178,0.34056 1.98115,2.64471 3.0117,0.204 2.96516,0.5655 2.87539,0.91874 2.7437,1.2586 2.572,1.58011 2.36281,1.87858 2.11918,2.14966 1.84465,2.3894 1.54323,2.5943"
     sodipodi:nodetypes="cccccccccccccccccccccccccccccccccccccccccccccccccccccccccccccccccccccccccccccccccccccccccccccccccccccccccccccccccccccccccccccccccccccccccccccccccccccccccccccccccccccccccccccccccccccccccccccccccccccccccccccccccccccccccccccccccccccccccccccccccccccccccccccccccccccccccccc" />
</svg>
